<svg width="30.000000" height="30.000000" viewBox="0 0 30 30" fill="none" xmlns="http://www.w3.org/2000/svg" xmlns:xlink="http://www.w3.org/1999/xlink">
	<desc>
			Created with Pixso.
	</desc>
	<defs/>
	<rect id="vuesax/bold/pen-tool" width="30.000000" height="30.000000" fill="#FFFFFF" fill-opacity="0"/>
	<g opacity="0.000000"/>
	<path id="Vector" d="M25.6875 11.8L24.3125 11.8C24.125 11.8 23.9375 11.8375 23.7625 11.8876L17.525 5.65002C18.125 4.87506 18.075 3.76257 17.3625 3.06256L16.3875 2.08752C15.65 1.35004 14.35 1.35004 13.6 2.08752L12.625 3.06256C11.925 3.76257 11.875 4.87506 12.475 5.65002L6.23749 11.8876C6.0625 11.8375 5.875 11.8 5.6875 11.8L4.3125 11.8C3.22501 11.8 2.33749 12.6876 2.33749 13.775L2.33749 15.15C2.33749 16.2375 3.22501 17.1251 4.3125 17.1251L5.6875 17.1251C6.77499 17.1251 7.66251 16.2375 7.66251 15.15L7.66251 13.775C7.66251 13.5875 7.625 13.4 7.57498 13.225L13.8125 6.98755C14.15 7.25006 14.575 7.38757 15 7.38757C15.425 7.38757 15.85 7.23755 16.2 6.97504L22.4375 13.2125C22.3875 13.3876 22.35 13.5751 22.35 13.7626L22.35 15.1376C22.35 16.225 23.2375 17.1125 24.325 17.1125L25.7 17.1125C26.7875 17.1125 27.675 16.225 27.675 15.1376L27.675 13.7626C27.65 12.675 26.775 11.8 25.6875 11.8Z" fill="#A8AB1A" fill-opacity="1.000000" fill-rule="nonzero"/>
	<path id="Vector" d="M19.6875 20.6875L17.6375 22.5L12.3125 22.5L10.2625 20.6875C9.07501 19.7125 9.07501 18.9625 9.97501 17.8125L13.5875 13.2375C13.8375 12.925 14.125 12.7125 14.45 12.6C14.7875 12.4875 15.15 12.4875 15.5 12.6C15.8125 12.7125 16.1 12.925 16.3625 13.2375L19.975 17.8125C20.875 18.95 20.8375 19.6625 19.6875 20.6875Z" fill="#A8AB1A" fill-opacity="1.000000" fill-rule="nonzero"/>
	<path id="Vector" d="M16.6125 27.5001L13.375 27.5001C12.225 27.5001 11.3625 26.5626 11.5875 25.5626L11.975 23.8251C12.05 23.475 12.3625 23.2375 12.7125 23.2375L17.275 23.2375C17.625 23.2375 17.925 23.475 18.0125 23.8251L18.4 25.5626C18.65 26.6251 17.8375 27.5001 16.6125 27.5001Z" fill="#A8AB1A" fill-opacity="1.000000" fill-rule="nonzero"/>
</svg>
